<svg width="25" height="25" viewBox="0 0 25 25" fill="none" xmlns="http://www.w3.org/2000/svg">
<g clip-path="url(#clip0_93_792)">
<path fill-rule="evenodd" clip-rule="evenodd" d="M25 12.5C25 19.4035 19.4035 25 12.5 25C5.59646 25 0 19.4035 0 12.5C0 5.59646 5.59646 0 12.5 0C19.4035 0 25 5.59646 25 12.5ZM14.823 4.72314L6.15125 5.36125C5.45203 5.42177 5.20833 5.8776 5.20833 6.42406V15.9019C5.20833 16.3277 5.36021 16.6917 5.72552 17.1781L7.76401 19.821C8.09885 20.2466 8.40312 20.3376 9.0425 20.3071L19.113 19.6995C19.9647 19.639 20.2083 19.2438 20.2083 18.5755V7.91276C20.2083 7.56729 20.0716 7.4675 19.6683 7.17333C19.6461 7.15719 19.6232 7.14042 19.5993 7.12297L16.8312 5.17884C16.1619 4.693 15.8879 4.63186 14.823 4.72314Z" fill="white"/>
<path fill-rule="evenodd" clip-rule="evenodd" d="M7.79493 7.42703C8.28128 7.82187 8.46373 7.79172 9.37696 7.73083L17.9869 7.21427C18.1695 7.21427 18.0176 7.03219 17.9567 7.00198L16.5268 5.96901C16.2528 5.75646 15.8878 5.51307 15.1882 5.57396L6.85123 6.18156C6.54722 6.21167 6.48649 6.36359 6.60758 6.48536L7.79493 7.42703Z" fill="white"/>
<path fill-rule="evenodd" clip-rule="evenodd" d="M8.31183 18.4841V9.43185C8.31183 9.03701 8.43355 8.85461 8.79844 8.82399L18.6866 8.24701C19.022 8.21659 19.1739 8.4294 19.1739 8.82399V17.8156C19.1739 18.2108 19.1128 18.5454 18.565 18.5755L9.10277 19.1226C8.55516 19.1527 8.31183 18.9707 8.31183 18.4841ZM17.3785 10.4953C17.6529 10.4645 17.7136 10.1911 17.6529 9.91742L15.553 10.0396C15.2487 10.0697 15.0056 10.3126 15.0664 10.6472L15.8576 10.7379V14.9302L12.7541 10.1912L10.5025 10.3429C10.0762 10.3735 9.92433 10.7681 9.98532 11.0417L10.7458 11.1026V17.0872L10.1981 17.2388C9.98516 17.2997 9.92422 17.6032 9.98516 17.7249L12.0841 17.6032C12.8454 17.6032 12.8454 17.0566 12.8454 17.0566L11.9017 16.8439V12.3176L14.8839 16.9958C15.2487 17.4512 15.3706 17.6032 15.8576 17.6032C16.1618 17.6032 16.5268 17.4816 16.9226 17.2691V10.5861L17.3785 10.4953Z" fill="white"/>
</g>
<defs>
<clipPath id="clip0_93_792">
<rect width="25" height="25" fill="white"/>
</clipPath>
</defs>
</svg>
