<svg width="25" height="25" viewBox="0 0 25 25" fill="none" xmlns="http://www.w3.org/2000/svg">
<g clip-path="url(#clip0_93_786)">
<path fill-rule="evenodd" clip-rule="evenodd" d="M0 12.5C0 5.59646 5.59646 0 12.5 0C19.4035 0 25 5.59646 25 12.5C25 19.4035 19.4035 25 12.5 25C5.59646 25 0 19.4035 0 12.5ZM20.4167 12.0436C20.4167 8.61927 16.9589 5.83333 12.7083 5.83333C8.45823 5.83333 5 8.61927 5 12.0436C5 15.1135 7.74229 17.6845 11.4466 18.1707C11.6977 18.2244 12.0393 18.3351 12.1257 18.548C12.2035 18.7416 12.1766 19.0446 12.1506 19.2401C12.1506 19.2401 12.0602 19.7801 12.0406 19.8951C12.0071 20.0886 11.8858 20.6518 12.7083 20.3076C13.531 19.9634 17.1476 17.7126 18.7647 15.8645C19.8819 14.6483 20.4167 13.4141 20.4167 12.0436Z" fill="white"/>
<path fill-rule="evenodd" clip-rule="evenodd" d="M11.1013 10.4165H10.5656C10.4835 10.4165 10.4167 10.4854 10.4167 10.5701V14.0129C10.4167 14.0978 10.4835 14.1665 10.5656 14.1665H11.1013C11.1834 14.1665 11.25 14.0978 11.25 14.0129V10.5701C11.25 10.4854 11.1834 10.4165 11.1013 10.4165Z" fill="white"/>
<path fill-rule="evenodd" clip-rule="evenodd" d="M14.8435 10.4165H14.2795C14.193 10.4165 14.1229 10.4854 14.1229 10.5701V12.6155L12.5176 10.4848C12.5139 10.4794 12.5097 10.4742 12.5054 10.4692L12.5043 10.4683C12.5013 10.4648 12.4981 10.4618 12.4949 10.4587C12.494 10.4579 12.4931 10.4571 12.492 10.4562C12.4894 10.4537 12.4866 10.4515 12.4837 10.4494C12.4825 10.4482 12.4811 10.4472 12.4797 10.4462C12.4769 10.4444 12.4743 10.4424 12.4715 10.4407C12.47 10.4397 12.4684 10.4388 12.4667 10.438C12.464 10.4363 12.4612 10.4347 12.4584 10.4333C12.4567 10.4325 12.4552 10.4317 12.4535 10.431C12.4505 10.4297 12.4476 10.4283 12.4446 10.4272C12.4427 10.4267 12.4412 10.426 12.4394 10.4255C12.4364 10.4244 12.4333 10.4233 12.4301 10.4225C12.4284 10.422 12.4265 10.4217 12.4247 10.421C12.4216 10.4205 12.4187 10.4197 12.4157 10.4191C12.4136 10.4188 12.4113 10.4185 12.4091 10.4183C12.4063 10.4177 12.4036 10.4175 12.4008 10.4173C12.3981 10.417 12.3955 10.417 12.3927 10.4168C12.3908 10.4168 12.3892 10.4165 12.3872 10.4165H11.8234C11.7369 10.4165 11.6667 10.4854 11.6667 10.5701V14.0129C11.6667 14.0978 11.7369 14.1665 11.8234 14.1665H12.3872C12.4738 14.1665 12.5439 14.0978 12.5439 14.0129V11.9681L14.1513 14.1015C14.1624 14.117 14.1761 14.1295 14.1911 14.1395L14.1926 14.1408C14.1958 14.1427 14.199 14.1447 14.2023 14.1465C14.2038 14.1474 14.2052 14.148 14.2067 14.1488C14.2091 14.1502 14.2117 14.1513 14.2141 14.1524C14.2168 14.1535 14.2191 14.1545 14.2218 14.1556C14.2234 14.1562 14.225 14.1568 14.2265 14.1573C14.2302 14.1586 14.2336 14.1597 14.2371 14.1607L14.2394 14.1612C14.2522 14.1645 14.2656 14.1665 14.2795 14.1665H14.8435C14.9301 14.1665 15 14.0978 15 14.0129V10.5701C15 10.4854 14.9301 10.4165 14.8435 10.4165Z" fill="white"/>
<path fill-rule="evenodd" clip-rule="evenodd" d="M9.84771 13.3044H8.35464V10.5704C8.35464 10.4854 8.2863 10.4165 8.20224 10.4165H7.6526C7.56833 10.4165 7.5 10.4854 7.5 10.5704V14.0125C7.5 14.0538 7.51635 14.0916 7.54266 14.1191C7.54266 14.1191 7.54385 14.1206 7.54474 14.1213C7.54552 14.1221 7.54698 14.1235 7.54698 14.1235C7.57448 14.1501 7.61141 14.1665 7.65245 14.1665H9.84771C9.93198 14.1665 10 14.0974 10 14.0125V13.4583C10 13.3733 9.93198 13.3044 9.84771 13.3044Z" fill="white"/>
<path fill-rule="evenodd" clip-rule="evenodd" d="M17.7644 11.2786C17.8487 11.2786 17.9167 11.2098 17.9167 11.1247V10.5705C17.9167 10.4856 17.8487 10.4165 17.7644 10.4165H15.5693C15.5281 10.4165 15.4907 10.4332 15.4632 10.46L15.4614 10.4617C15.4605 10.4625 15.4598 10.4634 15.459 10.4644C15.4329 10.4919 15.4167 10.5292 15.4167 10.5704V14.0126C15.4167 14.054 15.433 14.0916 15.4593 14.1191L15.4614 14.1213L15.4637 14.1235C15.491 14.15 15.5281 14.1665 15.569 14.1665H17.7644C17.8487 14.1665 17.9167 14.0974 17.9167 14.0126V13.4583C17.9167 13.3735 17.8487 13.3044 17.7644 13.3044H16.2715V12.7225H17.7644C17.8487 12.7225 17.9167 12.6536 17.9167 12.5686V12.0144C17.9167 11.9294 17.8487 11.8604 17.7644 11.8604H16.2715V11.2786H17.7644Z" fill="white"/>
</g>
<defs>
<clipPath id="clip0_93_786">
<rect width="25" height="25" fill="white"/>
</clipPath>
</defs>
</svg>
