<svg width="50" height="22" viewBox="0 0 50 22" fill="none" xmlns="http://www.w3.org/2000/svg">
<g clip-path="url(#clip0_77_426)">
<path d="M20.8685 9.96576C20.8626 9.6602 21.1061 9.44279 21.4447 9.44866C21.8249 9.44866 22.116 9.7601 22.116 10.1479C22.116 10.4535 21.8605 10.7003 21.516 10.7238C21.1477 10.7473 20.8744 10.43 20.8625 9.96576H20.8685Z" fill="#3C3C3C"/>
<path d="M22.4486 9.66021C22.3892 9.38991 22.5734 9.36641 22.805 9.36053C23.1139 9.35466 23.5001 9.5662 23.5298 9.78361C23.5773 10.1185 23.209 10.7414 22.9298 10.712C22.7813 10.6944 22.5971 10.477 22.5259 10.3125C22.4427 10.1244 22.4724 9.89526 22.4486 9.65434V9.66021Z" fill="#3C3C3C"/>
<path d="M22.312 11.9166C22.312 12.1517 21.9734 12.4514 21.7061 12.4514C21.4388 12.4514 21.1833 12.0988 21.1833 11.7286C21.1833 11.4524 21.4388 11.1821 21.7061 11.1704C22.0566 11.1586 22.3061 11.4583 22.3061 11.9108L22.312 11.9166Z" fill="#3C3C3C"/>
<path d="M23.1496 11.0881C23.5119 11.0881 23.7793 11.4289 23.7377 11.8168C23.7139 12.0636 23.2862 12.3868 23.0427 12.281C22.6625 12.1106 22.8288 11.7051 22.7635 11.4054C22.7219 11.1939 22.8407 11.0823 23.0664 11.094C23.0902 11.094 23.1199 11.094 23.1496 11.094V11.0881Z" fill="#3C3C3C"/>
<path d="M37.1866 11.0764C37.1272 10.9118 37.2757 10.7238 37.4718 10.7473C37.6262 10.7649 37.7569 10.7826 37.8698 10.8354C37.947 10.8766 37.9767 11.2115 37.8995 11.3173C37.846 11.3937 37.751 11.4524 37.6559 11.4994C37.5134 11.57 37.3352 11.4994 37.2817 11.3525L37.1866 11.0764Z" fill="#3C3C3C"/>
<path d="M38.3569 11.188C38.1906 10.9999 38.1431 10.6885 38.4579 10.5886C38.4579 10.5886 38.7728 10.6533 38.7847 10.665C39.0282 10.8295 39.0163 11.0411 38.8381 11.2526C38.7787 11.3231 38.6718 11.3701 38.4995 11.2996L38.3569 11.1939V11.188Z" fill="#3C3C3C"/>
<path d="M38.9094 12.0694C38.6302 12.1634 38.3748 11.8402 38.5649 11.6111C38.6005 11.5699 38.6421 11.5288 38.6955 11.4936C38.7609 11.4524 38.9688 11.4994 39.0044 11.5699C39.3252 11.9343 39.1232 11.993 38.9094 12.0694Z" fill="#3C3C3C"/>
<path d="M38.2143 11.9872C38.1371 12.0518 38.0718 12.1164 38.0124 12.1693C37.8995 12.2692 37.7332 12.2633 37.6262 12.1576C37.5134 12.0401 37.3886 11.9225 37.4064 11.8873C37.4421 11.8168 37.5015 11.7521 37.5668 11.6934C37.6619 11.6052 37.8104 11.6052 37.9054 11.6934C38.0124 11.7874 38.1371 11.9049 38.2143 11.9813V11.9872Z" fill="#3C3C3C"/>
<path d="M43.4111 9.04064C43.6547 9.42259 43.928 9.78103 44.124 10.1806C44.2903 10.5214 44.3794 10.9034 44.4685 11.2736C44.5517 11.6144 44.3675 11.8377 44.0586 11.9669C43.328 12.2725 42.5914 12.4135 41.8429 12.0022C40.8746 11.4733 39.9242 10.9092 38.9321 10.4333C37.4054 9.69289 35.8609 8.99951 34.3105 8.31788C33.9897 8.17686 33.6036 8.18273 33.2531 8.1181C33.2353 8.16511 33.2175 8.21799 33.1997 8.265C33.5858 8.62344 33.9779 8.97013 34.358 9.34032C35.1719 10.1395 35.9798 10.9445 36.7758 11.7554C36.9124 11.8964 37.0193 12.0727 37.1144 12.249C37.4351 12.819 37.2629 13.2362 36.6154 13.3831C36.3184 13.4477 35.9976 13.4536 35.6887 13.4595C35.0828 13.4712 34.4709 13.5123 33.8709 13.4477C33.4373 13.4066 32.9858 13.2832 32.6056 13.0834C30.9899 12.2549 29.3919 11.397 27.7999 10.5214C26.9564 10.0572 26.1722 9.47547 25.3049 9.04652C24.4673 8.63519 23.5763 8.32964 22.6852 8.02408C22.115 7.83017 21.5863 8.05346 21.1407 8.40602C20.6358 8.79972 19.2992 8.85261 18.919 9.3462C18.3547 10.0925 17.3983 10.069 16.7568 10.6977C16.3172 11.1325 15.6518 10.9915 15.236 11.4381C15.0875 11.6026 12.7708 13.1539 12.8539 13.3184C12.2718 14.1117 13.1213 15.2693 13.6499 15.234C14.2677 15.1929 18.0993 15.2987 18.7171 15.2869C19.8754 15.2693 21.0338 15.1635 22.1922 15.187C24.1525 15.2282 25.5663 14.3232 28.1028 14.4937C29.5939 14.8697 31.1681 14.905 32.6888 15.1753C33.7521 15.3633 34.857 15.5396 35.7421 16.2271C36.7282 16.9969 36.7223 18.4718 35.8372 19.3473C35.2907 19.8879 34.6729 20.1171 33.9184 20.2405C32.2849 20.5108 30.6631 20.8398 29.0592 21.2335C27.4613 21.6213 25.8455 21.9563 24.206 21.9563C22.4179 21.9563 20.6299 21.7389 18.8418 21.6213C17.4577 21.5332 16.0677 21.5038 14.6895 21.3569C13.1094 21.1865 11.5174 21.0925 9.99069 20.5872C9.62238 20.4638 9.22438 20.4403 8.8442 20.3697C7.63236 20.1464 6.58092 19.5353 5.47007 19.0476C3.94934 18.3836 2.53554 17.5257 1.15143 16.6208C0.379187 16.1213 -0.0366387 15.4103 -0.00099652 14.5113C0.0346456 13.53 0.177214 12.5545 0.26632 11.5732C0.349485 10.6507 0.634622 9.77515 1.15143 9.02889C1.59696 8.3884 2.20882 7.86543 2.76721 7.3072C3.6048 6.46692 4.65624 5.9557 5.71363 5.44448C6.75319 4.94501 7.75117 4.3574 8.79667 3.85793C10.4837 3.05291 12.1946 2.30665 13.8876 1.51338C15.2895 0.855254 16.7508 0.4263 18.3072 0.297026C18.7884 0.255893 19.2755 0.197132 19.7507 0.114867C20.7606 -0.0496631 21.7051 0.108991 22.6139 0.555574C23.5644 1.02566 24.5267 1.47812 25.495 1.91883C25.6435 1.98346 25.8396 2.00697 25.994 1.97171C27.1643 1.72491 28.3345 1.44874 29.5048 1.19607C30.4018 1.00216 31.2394 1.21957 32.071 1.53688C32.4749 1.68966 32.8789 1.83656 33.2947 1.95408C33.4313 1.99521 33.6096 1.95996 33.7462 1.9012C34.8986 1.42523 36.0392 0.896387 37.2035 0.45568C37.8629 0.208885 38.5698 0.120743 39.2351 0.520317C39.3836 0.608459 39.5618 0.649591 39.7162 0.731856C40.5241 1.14906 41.3083 1.55451 42.3003 1.27246C43.1141 1.04329 43.7973 1.48987 44.3854 1.98934C45.4249 2.87663 46.4348 3.7933 47.4446 4.71584C48.003 5.22706 48.5496 5.75003 49.0723 6.29063C49.298 6.52568 49.4644 6.82536 49.6426 7.10153C49.803 7.34833 49.8386 7.58337 49.6485 7.8713C49.4406 8.18273 49.3634 8.49417 49.6366 8.89374C49.8683 9.23455 49.9752 9.71052 49.9871 10.1336C50.0049 10.8387 49.4465 11.2853 48.6446 11.3441C47.813 11.4028 47.0942 11.062 46.3635 10.7447C46.0249 10.5978 45.6804 10.5038 45.4012 10.21C45.1992 9.99844 44.8546 9.91618 44.5636 9.78103C44.2071 9.6165 43.8567 9.46372 43.6488 9.0994C43.6191 9.04064 43.524 9.01714 43.4587 8.98188C43.4408 8.99951 43.4171 9.02301 43.3993 9.04064H43.4111Z" fill="#484848"/>
</g>
<defs>
<clipPath id="clip0_77_426">
<rect width="50" height="21.9178" fill="white" transform="translate(0 0.0410767)"/>
</clipPath>
</defs>
</svg>
