<svg width="25" height="25" viewBox="0 0 25 25" fill="none" xmlns="http://www.w3.org/2000/svg">
<g clip-path="url(#clip0_225_82)">
<path fill-rule="evenodd" clip-rule="evenodd" d="M25 12.5C25 19.4036 19.4036 25 12.5 25C5.59644 25 0 19.4036 0 12.5C0 5.59644 5.59644 0 12.5 0C19.4036 0 25 5.59644 25 12.5ZM5 17.1823V8.88059C5 8.39442 5.28613 8 5.81152 8H19.1885C19.6943 8 20 8.38496 20 8.88059V17.1823C20 17.6297 19.6582 18 19.1885 18H5.81152C5.34131 18 5 17.634 5 17.1823ZM6.55811 9.28919C6.3584 9.28919 6.2334 9.40364 6.2334 9.60369C6.2334 9.7728 6.36792 9.84695 6.4932 9.91601C6.50771 9.92401 6.52209 9.93194 6.53613 9.93994C6.91024 10.1531 7.98366 10.8095 9.12187 11.5056C10.7216 12.4838 12.4493 13.5404 12.5435 13.5545C12.6755 13.5739 12.8479 13.4592 12.9527 13.3894C12.9626 13.3828 12.9719 13.3766 12.9805 13.371C13.5284 13.0322 14.078 12.6879 14.6288 12.3428C15.794 11.6127 16.9645 10.8793 18.1353 10.1882C18.1707 10.1672 18.2087 10.1455 18.2478 10.123C18.5116 9.97156 18.8311 9.78816 18.8311 9.60369C18.8311 9.40364 18.7065 9.28919 18.5063 9.28919C18.4006 9.28919 15.1327 11.3289 13.8213 12.1474C13.5831 12.2961 13.4095 12.4045 13.3311 12.4531C13.205 12.5348 13.081 12.6094 12.958 12.6833C12.8371 12.756 12.7173 12.828 12.5977 12.9057L11.8369 12.4474C11.7786 12.4127 11.5413 12.268 11.1972 12.0581C9.80335 11.208 6.65718 9.28919 6.55811 9.28919Z" fill="white"/>
</g>
<defs>
<clipPath id="clip0_225_82">
<rect width="25" height="25" fill="white"/>
</clipPath>
</defs>
</svg>
