<svg width="25" height="25" viewBox="0 0 25 25" fill="none" xmlns="http://www.w3.org/2000/svg">
<g clip-path="url(#clip0_93_784)">
<path d="M12.5 0C5.59645 0 0 5.59746 0 12.5C0 19.4036 5.59645 24.999 12.5 24.999C19.4036 24.999 25 19.4036 25 12.5C25 5.59746 19.403 0 12.5 0ZM15.8081 12.4477H13.6437C13.6437 15.9066 13.6437 20.167 13.6437 20.167H10.4355C10.4355 20.167 10.4355 15.9503 10.4355 12.4477H8.90964V9.72233H10.4355V7.95634C10.4355 6.69239 11.0355 4.71929 13.6736 4.71929L16.0492 4.72843V7.37563C16.0492 7.37563 14.6046 7.37563 14.3244 7.37563C14.0426 7.37563 13.6442 7.51624 13.6442 8.11726V9.72284H16.0898L15.8081 12.4477Z" fill="white"/>
</g>
<defs>
<clipPath id="clip0_93_784">
<rect width="25" height="25" fill="white"/>
</clipPath>
</defs>
</svg>
